<svg version="1.1" id="Layer_1" xmlns="http://www.w3.org/2000/svg" xmlns:xlink="http://www.w3.org/1999/xlink" x="0px" y="0px"
	 width="100%" viewBox="0 0 1448 1086" enable-background="new 0 0 1448 1086" xml:space="preserve">
<path fill="none" opacity="1.000000" stroke="#000000" stroke-linecap="round" stroke-linejoin="round" stroke-width="13.000000"
	d="
M1045.500000,538.500000 
	C1043.879272,532.522949 1040.887939,527.047607 1037.773682,521.886536 
	C1035.254517,517.711731 1034.826294,512.658813 1031.562012,508.971130 
	C1033.520630,505.432922 1034.097900,501.565918 1034.703125,497.530457 
	C1035.258423,493.827484 1034.224976,489.572784 1035.797852,486.660919 
	C1037.600708,483.323425 1040.175537,480.601044 1041.104370,476.523773 
	C1048.593384,443.649506 1061.189941,412.706543 1076.984985,382.992004 
	C1089.288818,359.845306 1103.838135,338.221588 1120.497070,317.997589 
	C1139.949463,294.382446 1161.470215,272.639679 1181.974609,249.976990 
	C1191.535889,239.409332 1199.863892,227.974182 1205.001465,214.500534 
	C1210.744873,199.437286 1211.449341,183.794662 1209.957275,168.004028 
	C1207.092773,137.685745 1196.760010,109.615273 1183.473999,82.512772 
	C1175.290161,65.818634 1161.138672,57.062801 1143.505249,52.977295 
	C1116.322021,46.679195 1090.726074,51.798523 1065.447510,62.374432 
	C1035.415039,74.939117 1010.138611,94.367516 985.453796,114.944588 
	C969.295471,128.414093 953.514282,142.266937 938.469666,156.968979 
	C935.864441,159.514862 932.895081,161.717300 929.000000,162.000000 
"/>
<path fill="none" opacity="1.000000" stroke="#000000" stroke-linecap="round" stroke-linejoin="round" stroke-width="14.000000"
	d="
M1004.000000,522.500000 
	C1002.215881,513.041199 998.720581,510.027405 989.029358,507.391998 
	C979.618164,504.832672 970.611145,505.523712 962.078186,509.661224 
	C958.330444,511.478424 954.752258,511.749664 951.012756,511.373138 
	C949.271362,511.197754 947.665894,511.119568 946.000183,511.500671 
	C941.750244,512.473083 940.390442,514.977600 939.164062,519.406982 
	C936.984070,527.280823 940.806091,533.862061 941.707703,540.973694 
	C942.701050,548.808533 943.270630,556.662354 943.934937,564.505493 
	C945.316895,580.820618 946.498779,597.157288 947.429138,613.504028 
	C947.883728,621.492737 948.153320,629.519836 948.327148,637.503784 
	C948.973999,667.201904 948.136658,696.865295 945.638855,726.511719 
	C943.465698,752.305359 940.455322,777.901428 933.955627,802.988525 
	C932.187500,809.813049 930.013733,816.771179 925.868530,822.403198 
	C915.322205,836.732483 904.244812,839.114990 888.064453,831.365479 
	C874.537354,824.886719 868.681213,812.054138 865.114868,798.469849 
	C859.052063,775.376831 858.064270,751.781372 859.442627,727.996704 
	C860.692383,706.432739 863.153137,685.067749 867.995117,663.998901 
	C873.875549,638.411682 881.761353,613.487305 892.505493,589.502441 
	C892.962097,588.483032 893.250671,587.197510 894.039246,586.547607 
	C900.686646,581.068298 898.470215,573.869934 898.000000,567.000000 
"/>
<path fill="none" opacity="1.000000" stroke="#000000" stroke-linecap="round" stroke-linejoin="round" stroke-width="12.000000"
	d="
M458.000000,424.500000 
	C452.707001,429.377777 451.198334,436.209198 448.402039,442.456146 
	C438.426880,464.740845 426.299103,485.851288 412.503662,506.002502 
	C386.958862,543.316284 358.741730,578.557495 329.489105,612.990723 
	C308.084534,638.186096 285.870636,662.658630 263.573822,687.067444 
	C244.163818,708.315979 223.929657,728.786560 204.592545,750.084045 
	C188.472061,767.838806 171.337982,784.744751 157.467972,804.477478 
	C151.030518,813.635925 145.438232,823.234070 141.034027,833.514587 
	C140.292892,835.244629 139.617630,837.163635 139.602875,839.000854 
	C139.586731,841.011047 139.466415,843.299927 141.972305,844.555298 
	C144.106308,845.624268 145.989792,845.820923 148.001846,844.502808 
	C154.496964,840.247803 159.062622,834.125366 163.445099,827.960999 
	C172.305954,815.497437 179.378860,802.011658 185.563858,788.028259 
	C187.487061,783.680176 190.166656,779.666687 192.499985,775.500000 
"/>
<path fill="none" opacity="1.000000" stroke="#000000" stroke-linecap="round" stroke-linejoin="round" stroke-width="13.000000"
	d="
M772.500000,537.000000 
	C764.081787,538.174316 758.955444,544.613831 753.089050,549.604675 
	C746.371460,555.319641 740.332092,561.832031 734.001465,568.001526 
	C733.157532,568.823914 732.469360,570.140930 731.478577,570.425232 
	C723.331055,572.762939 723.027527,580.592407 720.020935,586.510620 
	C719.466003,587.602966 719.058167,588.761230 719.983521,590.012207 
	C724.556335,596.193787 723.670471,603.536621 723.926819,610.502686 
	C724.938599,637.996155 725.093323,665.534119 726.728027,692.986450 
	C727.622437,708.006714 727.159912,723.004395 727.860413,738.006531 
	C728.637329,754.644714 727.983276,771.346558 728.613831,787.995667 
	C729.093933,800.672363 728.661743,813.336853 729.018982,825.999451 
	C729.616150,847.168091 730.869324,868.335083 730.800293,889.499329 
	C730.758301,902.336182 731.606873,915.168518 730.974243,927.998718 
	C730.817078,931.184814 732.103210,934.308716 731.250000,937.500000 
"/>
<path fill="none" opacity="1.000000" stroke="#000000" stroke-linecap="round" stroke-linejoin="round" stroke-width="14.000000"
	d="
M764.000000,371.500000 
	C767.023743,374.936523 767.938110,379.290894 767.860474,383.497437 
	C767.736450,390.222656 769.049316,396.806488 769.029541,403.500092 
	C768.984680,418.693634 770.528015,433.825592 771.209290,448.990601 
	C772.107788,468.991364 773.596436,488.966370 774.102234,508.997406 
	C774.237793,514.365906 774.296631,519.933044 776.752747,524.998657 
	C778.199707,527.983032 775.723511,530.149414 774.822083,532.429688 
	C773.629700,535.445801 772.941162,538.030579 774.485229,541.007690 
	C776.537354,544.964233 775.632507,549.374695 775.854797,553.507812 
	C777.000977,574.824280 777.641541,596.167725 778.508484,617.499634 
	C779.131653,632.834717 779.768555,648.169861 780.516235,663.499207 
	C781.450684,682.657471 782.130737,701.819580 782.675842,720.994995 
	C783.078491,735.157410 783.897217,749.334656 784.655701,763.491638 
	C785.816345,785.155334 786.638428,806.826782 787.628418,828.494141 
	C788.222351,841.493958 789.521179,854.463440 789.544067,867.499939 
	C789.546082,868.667175 790.166687,869.833313 790.500000,871.000000 
"/>
<path fill="none" opacity="1.000000" stroke="#000000" stroke-linecap="round" stroke-linejoin="round" stroke-width="14.000000"
	d="
M705.000000,103.500000 
	C704.133850,112.047043 705.755005,120.496201 706.077759,128.997055 
	C706.381958,137.010803 707.329285,145.000336 708.002991,152.999741 
	C708.160706,154.871552 707.648193,156.407745 706.566406,158.043884 
	C703.986816,161.944931 703.681152,166.440109 703.994873,171.000351 
	C704.350220,176.165512 704.944458,181.332886 704.952820,186.500076 
	C704.992920,211.363373 706.864502,236.158997 707.564331,260.998199 
	C708.067017,278.840851 709.056213,296.672668 710.026245,314.498566 
	C711.423340,340.170837 713.025696,365.831879 714.484253,391.500885 
	C714.919556,399.161743 715.287598,406.830933 715.440308,414.501190 
	C715.501160,417.555328 715.904175,420.630554 717.623962,422.906311 
	C719.599182,425.519928 719.219238,428.039734 718.420410,430.473877 
	C716.643616,435.888245 715.367554,441.378784 714.411865,446.984985 
	C714.195618,448.253754 713.659424,449.351807 714.504517,450.496674 
	C717.618896,454.716187 717.332581,459.593262 717.566833,464.496796 
	C718.395325,481.838348 719.553040,499.163818 720.477600,516.501221 
	C720.939453,525.161011 721.205811,533.832031 721.487610,542.500427 
	C721.715149,549.498413 721.889587,556.499329 721.976807,563.500305 
	C722.022034,567.127014 723.722107,570.058533 725.500000,573.000000 
"/>
<path fill="none" opacity="1.000000" stroke="#000000" stroke-linecap="round" stroke-linejoin="round" stroke-width="13.000000"
	d="
M753.250000,64.500000 
	C753.333374,69.666664 753.408936,74.833481 753.506042,79.999886 
	C753.527344,81.132660 753.259827,82.038483 752.545776,83.032875 
	C749.124878,87.796555 748.365051,93.214417 748.426514,99.000778 
	C748.529114,108.664589 747.957764,118.335251 748.046326,127.999573 
	C748.200928,144.874802 749.637512,161.683151 750.790771,178.514343 
	C751.475647,188.511017 752.260437,198.521500 753.187988,208.482498 
	C754.010681,217.317886 754.469910,226.204971 755.858643,235.022263 
	C757.181213,243.418945 757.284058,252.004227 758.013489,260.498840 
	C758.786804,269.503998 759.696472,278.497375 760.491943,287.500702 
	C761.360596,297.330933 762.203735,307.163696 762.989075,317.000885 
	C763.707336,325.996765 764.178772,335.015625 765.085022,343.991425 
	C765.396851,347.079773 767.582520,349.568146 769.500000,352.000000 
"/>
<path fill="none" opacity="1.000000" stroke="#000000" stroke-linecap="round" stroke-linejoin="round" stroke-width="13.000000"
	d="
M867.000000,227.500000 
	C864.049072,224.594757 863.482361,220.915756 863.489075,216.999985 
	C863.515686,201.333359 863.154663,185.657242 863.582153,170.002243 
	C864.199341,147.399124 864.808777,124.750778 869.563049,102.513481 
	C870.595825,97.683197 871.522400,92.704483 875.464355,88.962463 
	C880.098022,84.563705 886.920044,84.191971 891.976990,87.534798 
	C897.400635,91.120041 900.974731,96.439194 903.949402,102.026932 
	C912.676758,118.420601 919.539368,135.587402 924.512146,153.496628 
	C924.750793,154.356247 925.075256,155.218689 925.514954,155.991501 
	C928.213257,160.733612 930.012695,165.559402 927.545532,171.020554 
	C927.306213,171.550125 927.476929,172.301239 927.954468,173.029846 
	C933.617065,181.669830 933.196045,191.966415 935.364319,201.530762 
	C937.637878,211.559845 939.065796,221.802277 940.429260,232.009445 
	C941.603210,240.797272 942.557983,249.651230 942.907471,258.503662 
	C943.420288,271.494080 944.776184,284.490021 943.948303,297.496704 
	C942.887695,314.160522 942.482788,330.852203 941.214111,347.516296 
	C940.326660,359.173889 939.325562,370.834747 938.416870,382.493530 
	C937.453369,394.855682 935.815247,407.164734 934.507935,419.500824 
	C933.891663,425.315735 931.947693,431.118958 933.622375,436.964935 
	C934.043091,438.433411 933.692810,439.257812 932.968323,439.967712 
	C927.220703,445.600311 929.022461,452.416473 930.107666,458.982208 
	C930.470642,461.178680 929.749023,462.645172 929.102112,464.534973 
	C925.876282,473.958496 925.084717,484.049286 929.358826,492.825226 
	C932.744873,499.777710 935.022461,507.589020 940.500000,513.500000 
"/>
<path fill="none" opacity="1.000000" stroke="#000000" stroke-linecap="round" stroke-linejoin="round" stroke-width="14.000000"
	d="
M455.750000,413.500000 
	C456.947998,418.673889 457.651978,423.647217 462.341888,427.683716 
	C468.660126,433.121735 470.930450,441.517365 473.878113,449.047699 
	C482.479553,471.021942 489.872742,493.443054 494.908051,516.520081 
	C498.593048,533.408508 501.998047,550.361694 504.624146,567.480957 
	C507.250977,584.604919 509.666229,601.772400 510.794830,619.013428 
	C511.914734,636.121704 513.621704,653.296997 511.988586,670.498901 
	C511.641571,674.154358 512.870483,677.365723 514.500000,680.500000 
"/>
<path fill="none" opacity="1.000000" stroke="#000000" stroke-linecap="round" stroke-linejoin="round" stroke-width="13.000000"
	d="
M580.000000,622.500000 
	C576.420349,622.376953 574.233582,624.739075 572.001953,627.001892 
	C560.664368,638.497803 549.662048,650.351562 537.878479,661.369995 
	C530.644409,668.134338 525.446716,677.177673 515.143982,680.898682 
	C512.203308,681.960815 510.928802,687.796753 509.020752,691.510620 
	C507.226135,695.003662 505.665314,698.385559 507.876404,702.565369 
	C509.213318,705.092651 508.103149,708.177063 507.515503,711.003235 
	C499.764465,748.278564 483.821228,781.831421 461.502716,812.501953 
	C445.120514,835.014709 424.116333,851.099792 397.542023,860.123779 
	C380.752167,865.825256 363.987183,871.395508 346.496368,874.479370 
	C339.821625,875.656250 333.076324,877.898682 326.497101,874.004883 
	C325.351044,873.326599 323.993103,873.498291 323.032166,874.055481 
	C320.000641,875.813049 316.739044,875.458313 313.500000,875.500000 
"/>
<path fill="none" opacity="1.000000" stroke="#000000" stroke-linecap="round" stroke-linejoin="round" stroke-width="11.000000"
	d="
M1108.000000,258.500000 
	C1110.095215,287.915955 1097.088257,312.308838 1080.790771,334.848755 
	C1060.226685,363.289673 1033.503296,385.266602 1003.585022,403.638458 
	C984.264648,415.502441 964.444336,426.273102 944.052124,436.108124 
	C940.859436,437.647919 937.879639,438.344971 934.500000,438.000000 
"/>
<path fill="none" opacity="1.000000" stroke="#000000" stroke-linecap="round" stroke-linejoin="round" stroke-width="14.000000"
	d="
M861.500000,245.500000 
	C865.781189,251.577087 865.178833,258.830566 865.302368,265.503662 
	C865.747314,289.538452 867.246399,313.510071 868.474976,337.501282 
	C868.960999,346.993469 869.017456,356.508118 869.533325,365.998199 
	C870.412476,382.171417 871.520386,398.332123 872.493164,414.500397 
	C873.194946,426.164948 873.805725,437.835022 874.515747,449.499054 
	C874.749451,453.338440 874.807678,457.242767 875.599792,460.978851 
	C876.411072,464.805908 878.456848,468.490662 874.993286,471.993378 
	C874.288147,472.706451 874.576050,473.187012 874.948730,474.022858 
	C878.358459,481.669617 877.173462,490.023102 878.496765,498.000519 
	C879.477783,503.914459 879.612854,509.752289 878.728699,515.783508 
	C878.273254,518.889893 881.197205,521.863342 881.712158,525.469727 
	C882.868347,533.566406 885.234131,541.485352 886.975586,549.505310 
	C888.078430,554.584167 889.949402,559.285339 893.001892,563.498657 
	C895.406006,566.817017 898.467712,567.226685 901.485168,564.483704 
	C904.966431,561.318970 907.146729,557.286987 909.042114,553.018677 
	C911.031067,548.539734 913.479187,544.362366 918.492249,542.479309 
	C921.995544,541.163330 923.996765,537.981506 926.445312,535.447205 
	C929.574951,532.208008 933.082153,529.895447 937.500000,529.000000 
"/>
<path fill="none" opacity="1.000000" stroke="#000000" stroke-linecap="round" stroke-linejoin="round" stroke-width="11.000000"
	d="
M630.000000,611.500000 
	C623.796387,614.113892 620.179565,618.841125 617.385620,624.947693 
	C609.433105,642.328735 601.535645,659.723755 594.504456,677.501770 
	C593.188904,680.828003 591.507812,684.165771 588.436157,685.885986 
	C584.084839,688.322632 582.689148,692.232788 581.498047,696.499451 
	C576.010437,716.156982 569.727783,735.569214 563.515869,755.005066 
	C552.276306,790.171570 537.944702,824.174500 524.365906,858.446838 
	C516.266113,878.890320 507.705261,899.206848 496.033752,918.020935 
	C485.469299,935.050598 471.166351,946.625244 450.993317,949.959473 
	C448.208496,950.419800 445.333344,950.333313 442.500000,950.500000 
"/>
<path fill="none" opacity="1.000000" stroke="#000000" stroke-linecap="round" stroke-linejoin="round" stroke-width="13.000000"
	d="
M506.000000,697.500000 
	C501.840942,698.346680 498.476624,700.410095 495.461151,703.461609 
	C481.047791,718.047180 466.616516,732.618835 451.973541,746.972961 
	C428.238525,770.239929 404.401123,793.403687 380.476471,816.475586 
	C364.099091,832.269409 347.514008,847.848145 330.986938,863.486145 
	C328.053986,866.261353 325.815155,869.331665 325.500000,873.500000 
"/>
<path fill="none" opacity="1.000000" stroke="#000000" stroke-linecap="round" stroke-linejoin="round" stroke-width="13.000000"
	d="
M713.500000,449.500000 
	C708.987000,450.828644 706.233582,454.052338 703.979858,457.988464 
	C681.069397,497.999512 660.100891,539.021790 639.976929,580.488831 
	C635.919678,588.849182 631.073547,596.903625 630.533447,606.501892 
	C630.361633,609.555725 630.391113,612.348389 632.829651,615.148376 
	C635.146606,617.808838 636.357849,621.563782 636.033997,625.502808 
	C635.651123,630.160400 638.140564,634.001709 640.000000,638.000000 
"/>
<path fill="none" opacity="1.000000" stroke="#000000" stroke-linecap="round" stroke-linejoin="round" stroke-width="13.000000"
	d="
M927.000000,171.500000 
	C923.392029,172.801254 920.216980,174.630951 917.456482,177.457489 
	C903.355469,191.895859 889.624695,206.666397 876.474670,221.978256 
	C875.332092,223.308731 874.005249,224.971909 872.469177,225.385483 
	C866.880920,226.890091 865.529724,231.190933 864.437012,235.985641 
	C864.055481,237.659363 863.421570,239.325439 862.877808,240.959351 
	C862.214233,242.953461 861.671936,244.879639 858.571777,245.754410 
	C853.720825,247.123169 850.653809,251.718567 847.563965,255.551544 
	C827.057556,280.988922 806.911499,306.710876 787.495911,332.996979 
	C784.525330,337.018677 781.527100,341.020752 778.485474,344.988831 
	C777.409912,346.392059 776.422974,348.278961 774.955322,348.893341 
	C768.798157,351.470612 767.428467,357.037933 766.063416,362.515808 
	C764.929626,367.065918 763.441406,370.531555 759.225952,373.792145 
	C752.640015,378.886261 749.094666,386.997223 744.496521,393.997742 
	C739.344910,401.840942 734.221313,409.703552 728.974365,417.482727 
	C726.730530,420.809418 724.299927,424.059906 720.000000,425.000000 
"/>
<path fill="none" opacity="1.000000" stroke="#000000" stroke-linecap="round" stroke-linejoin="round" stroke-width="12.000000"
	d="
M874.000000,473.000000 
	C865.794861,472.855927 859.610718,478.072906 853.100098,481.680664 
	C830.562988,494.169159 808.361389,507.280151 787.497803,522.497009 
	C784.650696,524.573608 781.500549,525.959656 778.000000,526.500000 
"/>
<path fill="none" opacity="1.000000" stroke="#000000" stroke-linecap="round" stroke-linejoin="round" stroke-width="13.000000"
	d="
M803.500000,571.000000 
	C800.283691,566.019348 800.301453,560.924988 802.448975,555.479858 
	C805.307678,548.231628 808.110596,540.862854 815.049194,536.579651 
	C822.966736,531.692261 830.656250,533.719849 834.004333,539.497498 
	C834.305054,540.016418 835.053406,540.617554 834.942383,540.982483 
	C833.047852,547.213135 837.871826,552.859680 836.489441,558.997620 
	C833.561279,571.999634 832.552612,585.548950 824.585938,597.059448 
	C821.498535,601.520142 817.808350,605.072205 812.509216,604.812317 
	C806.243347,604.504883 803.475769,599.147217 801.581055,593.970337 
	C799.018066,586.967346 800.980347,579.934021 802.576355,573.017639 
	C802.744507,572.289001 803.238098,571.319641 804.481934,570.940735 
	C811.380493,568.839844 814.721924,562.832642 818.429077,557.451172 
	C822.229980,551.933472 826.330139,547.207703 833.500000,546.500000 
"/>
<path fill="none" opacity="1.000000" stroke="#000000" stroke-linecap="round" stroke-linejoin="round" stroke-width="13.000000"
	d="
M579.750000,616.500000 
	C579.818970,620.013672 581.135437,622.928589 582.797302,626.106018 
	C586.014771,632.258118 584.874756,639.381470 584.328552,645.985840 
	C583.537842,655.547485 582.246643,665.097717 580.117737,674.526611 
	C578.944824,679.721436 580.955444,684.638733 584.000000,689.000000 
"/>
<path fill="none" opacity="1.000000" stroke="#000000" stroke-linecap="round" stroke-linejoin="round" stroke-width="13.000000"
	d="
M947.500000,511.000000 
	C950.166626,503.833313 953.455444,496.825623 955.337952,489.458588 
	C957.545349,480.819611 956.041931,472.337708 950.476318,465.018005 
	C946.638550,459.970551 942.282166,458.632812 936.020935,460.567810 
	C934.342590,461.086548 932.742615,461.546265 931.000000,461.500000 
"/>
<path fill="none" opacity="1.000000" stroke="#000000" stroke-linecap="round" stroke-linejoin="round" stroke-width="13.000000"
	d="
M682.500000,572.500000 
	C682.587708,576.590027 683.334900,580.633789 677.564636,582.233093 
	C675.343872,582.848572 673.981140,586.145569 672.408630,588.437317 
	C664.451355,600.034180 658.685120,612.736572 652.996155,625.498291 
	C650.772705,630.486145 647.592407,634.716431 642.470093,636.930847 
	C640.037354,637.982544 639.194519,639.625610 638.718384,641.993652 
	C636.202393,654.507202 633.682190,667.022034 630.908447,679.479614 
	C630.410828,681.714539 630.823242,683.845398 630.500000,686.000000 
"/>
<path fill="none" opacity="1.000000" stroke="#000000" stroke-linecap="round" stroke-linejoin="round" stroke-width="11.000000"
	d="
M878.000000,515.500000 
	C875.333313,515.333313 872.656067,515.265137 870.002319,514.978638 
	C865.143921,514.453979 861.509277,516.161865 860.117981,520.537537 
	C859.431519,522.696472 858.360535,524.477966 856.953552,525.955750 
	C848.831055,534.487244 852.907837,544.016541 855.183594,552.953247 
	C857.598267,562.435303 863.750916,568.869690 873.962891,571.165161 
	C878.218384,572.121826 881.809570,571.940857 885.498718,569.997498 
	C888.005432,568.677063 890.500000,567.333374 893.000000,566.000000 
"/>
<path fill="none" opacity="1.000000" stroke="#000000" stroke-linecap="round" stroke-linejoin="round" stroke-width="11.000000"
	d="
M878.000000,467.000000 
	C888.209900,465.045319 896.430847,458.475616 905.966003,454.909149 
	C910.332214,453.276093 914.336609,450.672913 918.498901,448.497925 
	C921.500732,446.929352 924.708252,446.707794 928.000000,447.000000 
"/>
<path fill="none" opacity="1.000000" stroke="#000000" stroke-linecap="round" stroke-linejoin="round" stroke-width="12.000000"
	d="
M925.000000,496.000000 
	C921.037842,499.489777 918.436890,503.834381 917.543396,509.007507 
	C916.421875,515.500549 914.421021,521.755127 912.399231,527.967224 
	C910.506226,533.783752 910.254761,539.176453 913.500000,544.500000 
"/>
<path fill="none" opacity="1.000000" stroke="#000000" stroke-linecap="round" stroke-linejoin="round" stroke-width="13.000000"
	d="
M682.500000,580.000000 
	C688.316895,583.963989 687.016113,590.482605 687.847656,596.022888 
	C688.728455,601.891113 687.207520,607.953186 690.813782,613.618530 
	C692.449158,616.187744 689.899597,619.715637 688.827881,622.432129 
	C685.089722,631.907104 682.183350,641.577271 679.981323,651.495850 
	C679.350647,654.336609 678.222839,656.900146 675.509949,658.516663 
	C668.516663,662.683777 668.008179,670.303955 666.153625,677.042297 
	C665.529602,679.309387 664.841125,681.715637 665.326538,684.529907 
	C667.021667,694.359070 667.341248,695.078003 677.000000,697.500000 
"/>
<path fill="none" opacity="1.000000" stroke="#000000" stroke-linecap="round" stroke-linejoin="round" stroke-width="13.000000"
	d="
M990.500000,454.000000 
	C993.992310,453.682037 996.617615,454.012726 998.696167,457.894958 
	C1001.050171,462.291687 1004.071960,465.536682 1004.491821,471.465179 
	C1005.080383,479.775482 1010.219360,487.380554 1014.097717,494.949921 
	C1016.583496,499.801392 1019.749756,504.371979 1024.000000,508.000000 
"/>
<path fill="none" opacity="1.000000" stroke="#000000" stroke-linecap="round" stroke-linejoin="round" stroke-width="13.000000"
	d="
M678.500000,657.000000 
	C683.498840,661.545776 683.906921,667.661621 682.829163,673.468262 
	C681.395203,681.193420 682.537903,689.549500 677.573364,696.552002 
	C676.299500,698.348816 678.756104,701.544739 681.505249,701.965820 
	C682.807983,702.165283 684.166687,702.000000 685.500000,702.000000 
"/>
<path fill="none" opacity="1.000000" stroke="#000000" stroke-linecap="round" stroke-linejoin="round" stroke-width="13.000000"
	d="
M1005.000000,465.500000 
	C1015.153992,464.889496 1021.325562,471.678314 1027.373291,478.118927 
	C1029.938965,480.851257 1031.818604,484.267944 1035.000000,486.500000 
"/>
<path fill="none" opacity="1.000000" stroke="#000000" stroke-linecap="round" stroke-linejoin="round" stroke-width="13.000000"
	d="
M719.000000,589.000000 
	C712.683044,590.322388 709.735107,595.619141 705.994141,599.994995 
	C701.763977,604.943054 699.077820,611.500488 692.000000,613.500000 
"/>
<path fill="none" opacity="1.000000" stroke="#000000" stroke-linecap="round" stroke-linejoin="round" stroke-width="9.000000"
	d="
M756.000000,84.000000 
	C759.731934,87.129822 761.076172,91.305298 761.536255,95.996445 
	C762.044373,101.178658 762.833374,106.333328 763.500061,111.499992 
"/>
<path fill="none" opacity="1.000000" stroke="#000000" stroke-linecap="round" stroke-linejoin="round" stroke-width="9.000000"
	d="
M708.500000,155.500000 
	C715.034180,159.061127 716.618103,165.536514 717.937500,172.012741 
	C718.772339,176.111191 719.000000,180.333328 719.500000,184.500000 
"/>
<path fill="none" opacity="1.000000" stroke="#000000" stroke-linecap="round" stroke-linejoin="round" stroke-width="13.000000"
	d="
M1023.500000,510.000000 
	C1017.639771,517.302063 1010.154785,522.001038 1000.998413,523.992676 
	C998.109314,524.621033 996.234985,521.716736 993.500000,521.750000 
"/>
</svg>